# xmcd CD database file
#
# Track frame offsets:
#	150
#	12638
#	27747
#	46315
#	56861
#	73173
#	89009
#	105995
#	124734
#	136145
#	149777
#	163880
#	175159
#	182185
#	197963
#	212880
#	230714
#	239364
#	253598
#	270352
#	286315
#	301627
#	316559
#
# Disc length: 4565 seconds
#
# Revision: 1
# Processed by: cddbd v1.5.1PL2 Copyright (c) Steve Scherf et al.
# Submitted via: CDex 1.51
#
DISCID=6011d317
DTITLE=Varios Artistas - 32a. DivinaExpo
DYEAR=2002
DGENRE=Rodeio
TTITLE0=Dá dá dá - Gleydson Rodrigues 
TTITLE1=Não foge da raia - Bruno and Marlon 
TTITLE2=Malícia - Arlan Batista 
TTITLE3=Vai Jotinha - Jota Lenon 
TTITLE4=Ela chorou de amor - Gino and Geno
TTITLE5=Menina Forrozeira - Os Astronautas 
TTITLE6=Solução - Falamansa 
TTITLE7=Pra rebolar - Trio Chapahalls
TTITLE8=Festa na Roça 
TTITLE9=Cuitelinho
TTITLE10=Nega
TTITLE11=Fusco a gás - Arlan Batista 
TTITLE12=Dá dá dá ao vivo - Gleydson Rodrigues 
TTITLE13=Não fujo da raia - Bruno and Marlon 
TTITLE14=Garrafão - Teodoro and Sampaio
TTITLE15=Pouti-Pourri
TTITLE16=Mexidinho dela - Eduardo Costa
TTITLE17=Menina Aurora - Arlan Batista
TTITLE18=Vem me ver
TTITLE19=Tô querendo mais - Erick and nando
TTITLE20=Na base do cacete - Trio Chapahalls 
TTITLE21=O baile tá pegando fogo - Trio Alto Astral 
TTITLE22=(Poema) Filho Ingrato - Marco Brasil
EXTD=DivinaExpo - Festa do Rodeio em Divinópolis/MG/Brasil YEAR: 2002
EXTT0=
EXTT1=
EXTT2=
EXTT3=
EXTT4=
EXTT5=
EXTT6=
EXTT7=
EXTT8=
EXTT9=
EXTT10=
EXTT11=
EXTT12=
EXTT13=
EXTT14=
EXTT15=
EXTT16=
EXTT17=
EXTT18=
EXTT19=
EXTT20=
EXTT21=
EXTT22=
PLAYORDER=
